<?xml version="1.0" standalone="no"?>
<!DOCTYPE svg PUBLIC "-//W3C//DTD SVG 20010904//EN"
 "http://www.w3.org/TR/2001/REC-SVG-20010904/DTD/svg10.dtd">
<svg version="1.0" xmlns="http://www.w3.org/2000/svg"
 width="169.000000pt" height="169.000000pt" viewBox="0 0 169.000000 169.000000"
 preserveAspectRatio="xMidYMid meet">
<metadata>
Created by potrace 1.11, written by Peter Selinger 2001-2013
</metadata>
<g transform="translate(0.000000,169.000000) scale(0.100000,-0.100000)"
fill="#000000" stroke="none">
<path d="M744 1669 c-46 -13 -121 -85 -151 -142 -32 -64 -41 -153 -20 -195 14
-30 14 -31 -26 -79 -99 -119 -208 -317 -229 -416 -24 -112 23 -237 112 -305
25 -19 46 -38 48 -42 2 -4 -13 -11 -32 -14 -70 -13 -126 -108 -105 -178 5 -18
21 -44 35 -59 25 -26 26 -32 22 -102 -3 -40 -12 -88 -21 -105 l-15 -32 444 0
444 0 1 33 0 32 16 -32 17 -33 81 0 81 0 -38 77 c-20 43 -40 97 -44 120 -5 36
-2 47 20 73 48 57 43 136 -11 201 -27 31 -91 69 -118 69 -12 0 -10 8 9 37 96
145 70 347 -71 560 -56 85 -156 186 -221 223 -46 26 -60 39 -54 50 4 8 7 50 7
92 0 62 -4 82 -21 104 -43 58 -101 81 -160 63z m94 -506 c-55 -4 -57 -5 -68
-39 -7 -19 -9 -42 -6 -50 3 -8 2 -13 -3 -10 -5 3 -12 -1 -15 -10 -6 -15 1 -16
55 -10 127 15 168 47 120 95 -12 12 -17 21 -12 21 14 0 41 -41 41 -62 0 -37
-61 -56 -253 -77 -116 -13 -142 -8 -162 36 -13 27 -14 38 -5 47 8 8 10 7 6 -4
-8 -21 15 -62 41 -71 20 -7 23 -2 41 52 16 48 17 59 5 59 -8 0 -11 -4 -8 -10
3 -5 0 -7 -9 -4 -8 3 -24 0 -36 -6 -13 -7 -20 -8 -16 -2 16 27 139 50 261 49
62 -1 67 -2 23 -4z m-78 -415 l-1 -63 -19 24 c-22 26 -27 87 -7 94 25 11 27 6
27 -55z"/>
<path d="M671 1103 c-8 -27 -16 -54 -19 -60 -2 -7 0 -13 5 -13 5 0 14 19 20
43 7 23 15 50 18 60 4 9 3 17 -2 17 -5 0 -15 -21 -22 -47z"/>
</g>
</svg>
